#define cursor_width 16
#define cursor_height 16
static char cursor_bits[] = {
   0xfe, 0xff, 0xfe, 0xff, 0xfe, 0xff, 0xfe, 0xff, 0xfe, 0xff, 0xfe, 0xff,
   0xfe, 0xff, 0xfe, 0xff, 0xfe, 0xff, 0xfe, 0xff, 0xfe, 0xff, 0xfe, 0xff,
   0xfe, 0xff, 0xfe, 0xff, 0xfe, 0xff, 0x00, 0x00};
